<svg width="24" height="24" viewBox="0 0 24 24" fill="none" xmlns="http://www.w3.org/2000/svg">
<g clip-path="url(#clip0_193_111)">
<path d="M23.5618 15.5939L17.333 13.1307V2.20971C17.333 1.493 16.7499 0.910339 16.0336 0.910339H5.30254C4.58582 0.910339 4.00316 1.49346 4.00316 2.20971V2.90862H3.30566C2.58895 2.90862 2.00629 3.49175 2.00629 4.208V8.73378H1.13816C0.510977 8.73378 0.000976562 9.20956 0.000976562 9.79409V20.8917C0.000976562 20.9958 0.0309766 21.0919 0.0900391 21.1767L1.24363 22.861C1.34066 23.0039 1.50473 23.0892 1.68285 23.0892C1.8591 23.0892 2.01707 23.0086 2.11738 22.8675C2.11879 22.8657 2.11973 22.8642 2.12113 22.8624L3.27613 21.1763C3.3352 21.0914 3.3652 20.9953 3.3652 20.8913V20.6775H11.8796C11.9789 20.9696 12.2119 21.1964 12.5438 21.3099C13.8066 21.7416 15.0286 21.9577 16.2535 21.9577C17.4896 21.9577 18.728 21.7378 20.0133 21.2982C20.4282 21.1566 20.6963 20.7816 20.6963 20.3428V18.015L21.6408 17.6414V19.0608C21.6408 19.268 21.8086 19.4353 22.0154 19.4353C22.2221 19.4353 22.3899 19.2675 22.3899 19.0608V17.3452L23.5622 16.8816C23.8275 16.7761 23.9991 16.523 23.9991 16.2371C23.9991 15.9521 23.8275 15.6999 23.5618 15.5939ZM4.75223 2.20971C4.75223 1.90643 4.99879 1.6594 5.30254 1.6594H16.0336C16.3369 1.6594 16.5839 1.90596 16.5839 2.20971V12.8344L16.5141 12.8067C16.3486 12.7421 16.1738 12.7421 16.0064 12.8072L15.3352 13.0725V4.20846C15.3352 3.49175 14.7521 2.90909 14.0358 2.90909H4.75223V2.20971ZM2.05785 20.5557V11.3424H2.61566V20.5557H2.05785ZM0.750508 11.3424H1.30832V20.5557H0.750508V11.3424ZM1.13816 9.48331H2.22754C2.43801 9.48331 2.61566 9.62581 2.61566 9.79409V10.5928H0.750039V9.79409C0.750508 9.62581 0.928164 9.48331 1.13816 9.48331ZM1.68285 22.1761L1.08613 21.3052H2.27957L1.68285 22.1761ZM3.3652 9.79409C3.3652 9.38675 3.1177 9.03284 2.75535 8.85518V4.20846C2.75535 3.90518 3.00191 3.65815 3.30566 3.65815H14.0354C14.3386 3.65815 14.5857 3.90471 14.5857 4.20846V13.3697L8.95879 15.5944L8.95832 15.5949C8.69301 15.7003 8.52145 15.953 8.52145 16.238C8.52145 16.5239 8.69301 16.7771 8.95926 16.8825L11.8261 18.016V19.9289H3.3652V9.79409ZM19.9468 20.3433C19.9468 20.4596 19.8811 20.5519 19.771 20.5894C17.3771 21.4083 15.158 21.4125 12.7866 20.6016C12.6404 20.5514 12.5752 20.4717 12.5752 20.3438V18.3127L16.0083 19.6697C16.0908 19.7021 16.1757 19.718 16.261 19.718C16.3468 19.718 16.4325 19.7016 16.516 19.6692L19.9472 18.3122V20.3433H19.9468ZM21.8766 16.7428C21.8733 16.7442 21.8705 16.7452 21.8672 16.7466L20.1905 17.4094C20.1835 17.4117 20.1769 17.4146 20.1704 17.4174L16.2605 18.9633L12.3544 17.4188C12.3436 17.4141 12.3324 17.4094 12.3211 17.4057L9.36754 16.238L16.2605 13.5127L16.8094 13.7297C16.8132 13.7316 16.8174 13.733 16.8211 13.7344L23.1525 16.238L21.8766 16.7428ZM4.47848 6.13503C4.47848 5.92831 4.64629 5.7605 4.85301 5.7605H12.4852C12.6924 5.7605 12.8597 5.92831 12.8597 6.13503C12.8597 6.34175 12.6919 6.50956 12.4852 6.50956H4.85348C4.64629 6.50956 4.47848 6.34175 4.47848 6.13503ZM4.47848 8.96393C4.47848 8.75721 4.64629 8.5894 4.85301 8.5894H12.4852C12.6924 8.5894 12.8597 8.75721 12.8597 8.96393C12.8597 9.17065 12.6919 9.33846 12.4852 9.33846H4.85348C4.64629 9.33846 4.47848 9.17065 4.47848 8.96393ZM4.47848 11.7928C4.47848 11.5861 4.64629 11.4183 4.85301 11.4183H12.4852C12.6924 11.4183 12.8597 11.5861 12.8597 11.7928C12.8597 11.9996 12.6919 12.1674 12.4852 12.1674H4.85348C4.64629 12.1674 4.47848 11.9996 4.47848 11.7928ZM7.33551 14.6217C7.33551 14.8289 7.1677 14.9963 6.96098 14.9963H4.85348C4.64629 14.9963 4.47895 14.8285 4.47895 14.6217C4.47895 14.415 4.64676 14.2472 4.85348 14.2472H6.96098C7.1677 14.2467 7.33551 14.4146 7.33551 14.6217ZM7.33551 17.4507C7.33551 17.6578 7.1677 17.8252 6.96098 17.8252H4.85348C4.64629 17.8252 4.47895 17.6574 4.47895 17.4507C4.47895 17.2439 4.64676 17.0761 4.85348 17.0761H6.96098C7.1677 17.0757 7.33551 17.2435 7.33551 17.4507Z" fill="#418FC3"/>
</g>
<defs>
<clipPath id="clip0_193_111">
<rect width="24" height="24" fill="white"/>
</clipPath>
</defs>
</svg>
