<svg width="25" height="25" viewBox="0 0 25 25" fill="none" xmlns="http://www.w3.org/2000/svg">
<g id="fi_11502607">
<path id="Vector" fill-rule="evenodd" clip-rule="evenodd" d="M22.4835 12.9298C20.4662 16.5525 16.6404 18.803 12.5012 18.803C8.35933 18.803 4.53359 16.5525 2.51621 12.9298C2.36084 12.6485 2.36084 12.3512 2.51621 12.0701C4.53359 8.44746 8.35933 6.19726 12.5012 6.19726C16.6404 6.19726 20.4662 8.44746 22.4835 12.0701C22.6417 12.3512 22.6417 12.6485 22.4835 12.9298ZM23.7722 11.3519C21.495 7.26167 17.1763 4.72109 12.5012 4.72109C7.82349 4.72109 3.50479 7.26167 1.22754 11.3519C0.820312 12.0816 0.820312 12.9183 1.22754 13.6476C3.50479 17.7377 7.82349 20.2789 12.5012 20.2789C17.1763 20.2789 21.495 17.7377 23.7722 13.6476C24.1794 12.9184 24.1794 12.0816 23.7722 11.3519ZM12.5012 15.528C14.1703 15.528 15.5286 14.1697 15.5286 12.4999C15.5286 10.83 14.1703 9.47168 12.5012 9.47168C10.8294 9.47168 9.47114 10.83 9.47114 12.4999C9.47114 14.1697 10.8295 15.528 12.5012 15.528ZM12.5012 7.99551C10.015 7.99551 7.99497 10.0164 7.99497 12.4999C7.99497 14.984 10.015 17.004 12.5012 17.004C14.9848 17.004 17.0048 14.9839 17.0048 12.4999C17.0048 10.0164 14.9848 7.99551 12.5012 7.99551Z" fill="#48515C"/>
</g>
</svg>
