<svg width="24" height="24" viewBox="0 0 24 24" fill="none" xmlns="http://www.w3.org/2000/svg">
<g id="fi_18510745">
<path id="Vector" fill-rule="evenodd" clip-rule="evenodd" d="M21.9646 21.2648C21.9596 21.4156 21.9661 21.4208 21.9349 21.5799C21.871 21.905 21.6434 22.2034 21.3667 22.3764C21.3202 22.4055 21.3259 22.4131 21.2612 22.4449C21.0025 22.5721 21.1098 22.5279 20.8798 22.5877C20.7082 22.6323 20.4168 22.6103 20.2467 22.5563C19.8806 22.4401 19.6337 22.2746 19.4351 21.9378C19.3506 21.7947 19.2913 21.6369 19.2673 21.4722C19.2036 21.4694 19.1542 21.5045 19.0644 21.5036C18.8917 21.5019 18.8791 21.5355 18.8426 21.5358C18.8236 21.5361 18.8047 21.5337 18.7858 21.5461C18.783 21.5472 18.783 21.548 18.7803 21.5477C18.7398 21.541 18.7046 21.5631 18.6667 21.5756L18.5693 21.5794C18.4542 21.6073 18.13 21.6132 18.0066 21.6032L17.2707 21.6105C17.2248 21.6113 17.176 21.6169 17.1274 21.6183L16.6133 21.6178L16.221 21.6297C15.8588 21.6394 15.4883 21.6002 15.1227 21.5837L14.0107 21.5507C13.9509 21.5623 13.9524 21.5275 13.9269 21.5256C13.8661 21.5202 13.6122 21.502 13.5427 21.479C13.4822 21.4591 13.3863 21.5146 13.3669 21.4761C13.3614 21.4639 13.3533 21.4631 13.3452 21.4623V21.462C13.3425 21.4742 13.3425 21.4866 13.3398 21.4991C13.2804 21.866 13.0701 22.1797 12.7554 22.3764C12.7089 22.4055 12.7146 22.4131 12.6499 22.4449C12.3805 22.5773 12.5078 22.5255 12.2685 22.5877C12.0963 22.6324 11.8064 22.6106 11.6354 22.5563C11.275 22.442 11.017 22.2726 10.8238 21.9378C10.7433 21.7984 10.6784 21.6336 10.6587 21.4722C10.5901 21.4695 10.5427 21.5045 10.4558 21.5036C10.2799 21.5018 10.2678 21.5355 10.2313 21.5358C10.2123 21.5361 10.1934 21.5337 10.1745 21.5461C10.1745 21.5472 10.1718 21.548 10.169 21.5477C10.1312 21.541 10.0933 21.5631 10.0554 21.5756L9.95804 21.5794C9.78937 21.6147 9.6879 21.5982 9.54683 21.6067C9.49542 21.6097 9.44401 21.6072 9.39534 21.6032L8.65945 21.6105C8.61347 21.6113 8.56475 21.6169 8.51876 21.6183L8.00204 21.6178L7.37708 21.6324L6.81433 21.6015C6.57323 21.5885 6.34945 21.5718 6.10551 21.5718L5.39939 21.5507C5.34131 21.5626 5.34563 21.5277 5.31553 21.5255C5.25505 21.5199 5.00516 21.5025 4.93134 21.479C4.86961 21.4593 4.77486 21.5145 4.75551 21.476L4.73387 21.462C4.73387 21.6065 4.61814 21.8867 4.52286 22.015C4.4271 22.1474 4.28996 22.2943 4.14683 22.3764C4.06691 22.4222 4.08433 22.4293 3.95473 22.487C3.72409 22.5898 3.87644 22.5299 3.65987 22.5877C3.49023 22.633 3.19254 22.6098 3.02411 22.5563C2.65854 22.4403 2.41355 22.2742 2.21516 21.9378C2.05513 21.6664 2.01812 21.4277 2.04203 21.1238L2.10966 20.831L2.20163 20.6343C2.29575 20.4328 2.52668 20.2061 2.73457 20.1344L2.9402 20.0924C3.04119 20.0701 3.25571 20.0867 3.34331 20.1574C3.36361 20.1737 3.3447 20.1795 3.39471 20.2266C3.41012 20.2411 3.40575 20.2583 3.4407 20.2878C3.38367 20.3268 3.41507 20.3336 3.38929 20.3365C3.35329 20.3405 3.37307 20.3701 3.33246 20.3844C3.25681 20.411 3.2606 20.4573 3.24044 20.4639C3.05804 20.5233 3.14171 20.5238 3.04023 20.5843C2.92902 20.6505 2.94764 20.692 2.92931 20.7087C2.89235 20.7424 2.915 20.743 2.90497 20.748C2.88332 20.7639 2.88063 20.7977 2.87521 20.8261C2.87348 20.8359 2.83494 20.8778 2.81843 20.9622C2.80479 21.0317 2.77772 21.0826 2.77513 21.1456C2.76971 21.1778 2.76702 21.2106 2.76159 21.2433C2.75891 21.2601 2.76702 21.2771 2.76702 21.2939C2.77086 21.4211 2.83796 21.5848 2.92393 21.6805C2.97601 21.7385 3.11084 21.8329 3.18635 21.8634L3.27831 21.8951C3.30486 21.9145 3.44151 21.9139 3.45956 21.9105C3.67206 21.8704 3.87255 21.8149 4.01147 21.6315C4.10315 21.5105 4.11519 21.4717 4.14135 21.3353C4.17059 21.1827 4.1354 20.9626 4.04127 20.8369L4.00883 20.7904C3.95027 20.744 4.04828 20.7691 3.92497 20.657L3.78428 20.5248C3.74958 20.4856 3.66044 20.5128 3.65713 20.475C3.65473 20.4478 3.593 20.4372 3.59219 20.4374C3.53843 20.4537 3.45639 20.3882 3.4407 20.3535C3.44991 20.336 3.47185 20.3349 3.49753 20.3246C3.49753 20.3227 3.49484 20.3211 3.49484 20.3197C3.47953 20.3075 3.50257 20.2909 3.50295 20.2754C3.50324 20.2641 3.40811 20.2338 3.59766 20.2023C3.88983 20.1539 4.24614 20.2293 4.43631 20.4672C4.49041 20.5313 4.54182 20.6001 4.58243 20.6744L4.65548 20.83C4.69143 20.8865 4.66787 20.889 4.68255 20.9173C4.7102 20.971 4.73665 21.1234 4.73665 21.1857C5.22529 21.0233 5.2059 21.0202 5.72684 20.999C5.77254 20.9972 5.79284 20.9835 5.82155 20.9964L6.37345 20.9677C6.63644 20.9536 6.90015 20.9569 7.16343 20.9536L7.47726 20.9301L7.84518 20.9215C7.86951 20.9207 7.89116 20.9147 7.9155 20.9147C8.11508 20.9147 8.18732 20.9053 8.38081 20.8917L9.2763 20.873L9.76326 20.8969L9.94993 20.899C10.0591 20.9045 10.3986 20.9318 10.4694 20.9764C10.5203 21.0085 10.6043 21.0182 10.6696 21.0443C10.6696 21.005 10.7238 20.8004 10.7562 20.7576C10.7832 20.7217 10.8037 20.5626 11.0294 20.3434C11.1158 20.2596 11.2675 20.1374 11.3947 20.1234C11.6073 20.1 11.5162 20.0648 11.7843 20.0948C12.0018 20.1191 11.9813 20.2358 12.0521 20.2879C11.9947 20.3272 12.0278 20.3316 12.0007 20.3366C11.9618 20.3438 11.9855 20.3699 11.9438 20.3845C11.8221 20.4275 11.9374 20.442 11.7815 20.487C11.726 20.5031 11.7234 20.5377 11.6489 20.5844C11.5424 20.6513 11.5619 20.6871 11.538 20.7089C11.5046 20.7392 11.5261 20.7436 11.5164 20.7481C11.492 20.7641 11.492 20.7979 11.4866 20.8263L11.4542 20.8828L11.4027 21.0533C11.3749 21.1567 11.388 21.152 11.373 21.2435C11.3702 21.2602 11.3784 21.2773 11.3784 21.2941C11.3846 21.6998 11.8434 21.9532 12.0683 21.9106C12.368 21.8538 12.5834 21.7653 12.7149 21.4794C12.7808 21.3361 12.7768 21.098 12.7095 20.9464L12.6202 20.7906C12.582 20.7602 12.6113 20.7479 12.5986 20.7297C12.5308 20.6331 12.4406 20.5787 12.393 20.5249C12.3567 20.4839 12.2719 20.514 12.2685 20.4751C12.2664 20.4511 12.2052 20.437 12.2036 20.4375C12.1542 20.4525 12.0728 20.3992 12.052 20.3537C12.0607 20.3373 12.0885 20.3308 12.1089 20.3247C12.0859 20.3087 12.1138 20.2944 12.1143 20.2755C12.1147 20.2602 12.0337 20.2496 12.1522 20.2122C12.2537 20.1801 12.4559 20.1852 12.5607 20.2033C12.7429 20.2347 12.9306 20.3209 13.0477 20.4673C13.1289 20.5689 13.2016 20.6646 13.2479 20.7901C13.2665 20.8405 13.2909 20.8523 13.2884 20.8999L13.3182 20.9848L13.3479 21.1859C13.8414 21.0183 13.8315 21.0197 14.3381 20.9992C14.3832 20.9974 14.4017 20.9838 14.4301 20.9965L14.9847 20.9678C15.3078 20.9509 15.6456 20.9673 15.9451 20.944L16.0858 20.9303L16.4565 20.9216C16.4781 20.9208 16.5025 20.9149 16.5268 20.9149C16.7256 20.9149 16.8013 20.9053 16.9922 20.8919L17.8876 20.8732L18.3719 20.897L18.5613 20.8992C18.6752 20.9047 19.0009 20.9316 19.0807 20.9765C19.1419 21.011 19.2049 21.017 19.2809 21.0445C19.3399 20.7999 19.3155 20.8651 19.4216 20.6346C19.5147 20.4352 19.7488 20.2056 19.9546 20.1346L20.1602 20.0927C20.2638 20.0697 20.473 20.0874 20.566 20.1576C20.5819 20.1697 20.571 20.1832 20.6174 20.2269C20.623 20.2321 20.6253 20.2599 20.6634 20.288C20.6049 20.328 20.6401 20.3333 20.6093 20.3367C20.5747 20.3406 20.5937 20.3715 20.5525 20.3846C20.4779 20.4082 20.4836 20.4562 20.4605 20.4641C20.2685 20.5298 20.3848 20.5064 20.2603 20.5845C20.2427 20.5956 20.1688 20.6521 20.1656 20.6738C20.1579 20.7252 20.1277 20.7037 20.1277 20.7482C20.1034 20.7642 20.1006 20.798 20.0979 20.8264L20.0628 20.8829L19.9951 21.1459C19.9924 21.1781 19.9897 21.2108 19.9816 21.2436C19.9789 21.2603 19.987 21.2773 19.987 21.2941C19.9924 21.4131 20.062 21.5947 20.1439 21.6807C20.2109 21.7511 20.3696 21.8629 20.4686 21.8839C20.5163 21.8941 20.5011 21.9089 20.5552 21.9085C20.6418 21.9079 20.6492 21.9241 20.7473 21.8975L20.8609 21.8717C21.0103 21.8173 21.1331 21.7665 21.2316 21.6318C21.3381 21.486 21.3256 21.4966 21.3641 21.3355C21.3856 21.2457 21.3666 21.0417 21.3208 20.9465L21.2316 20.7906C21.1651 20.7133 21.3066 20.7922 21.0422 20.5585C20.9808 20.5042 20.9851 20.5041 20.8961 20.4936C20.8638 20.4897 20.9078 20.4649 20.8258 20.4392C20.7711 20.422 20.7675 20.4743 20.6634 20.3537C20.6724 20.3366 20.6958 20.3321 20.7203 20.3247C20.6942 20.3065 20.7251 20.298 20.7257 20.2755C20.7261 20.2607 20.6459 20.2488 20.7609 20.2122L20.9827 20.1876C21.2081 20.1734 21.5094 20.2802 21.6591 20.4673C21.7375 20.5653 21.8147 20.6691 21.8593 20.7901C21.8698 20.8186 21.9069 20.8739 21.8999 20.8999C21.8947 20.919 21.9208 20.9342 21.9297 20.9854C21.9443 21.0712 21.9646 21.1784 21.9646 21.2648ZM12.0277 6.84274C12.1307 6.90716 12.391 7.06599 12.4686 7.12867L12.8447 7.36623C13.0288 7.48714 13.6987 7.94554 13.7997 8.04744C13.8741 8.12256 14.0747 8.26196 14.1784 8.35263C14.2047 8.37557 14.4991 8.61572 14.4815 8.62671C14.4625 8.63856 14.495 8.66775 14.495 8.67836C14.495 8.69919 14.495 8.69919 14.5193 8.72247L14.1812 8.5872C13.9563 8.47579 13.9393 8.50555 13.6942 8.36587C13.5873 8.30491 13.3918 8.22907 13.2614 8.16082L12.9151 7.99498C12.8245 7.96882 12.7636 7.91957 12.6986 7.90219C12.6932 7.90085 12.6878 7.89922 12.6851 7.89706C12.6175 7.8565 12.5282 7.82943 12.4497 7.79914L12.2658 7.70823C12.0381 7.61736 11.4399 7.3069 11.2269 7.17744C11.1836 7.15037 11.135 7.12872 11.089 7.10333C10.9807 7.04516 10.878 6.98674 10.7724 6.92775C10.7724 7.12051 10.7842 8.04307 10.7724 8.15683C10.7589 8.28859 10.7805 8.41844 10.7751 8.54967C10.7694 8.70144 10.7834 8.87256 10.7859 9.02204C10.7948 9.54207 10.7741 10.0389 10.7616 10.5576C10.8381 10.4965 12.2448 9.77055 12.3902 9.69648L12.539 9.62074C12.6346 9.56131 12.6577 9.57754 12.7176 9.55066C12.9664 9.43892 13.2149 9.2976 13.4832 9.18543C13.5932 9.13939 13.7456 9.02472 13.8186 9.01013C13.8745 8.99895 14.1159 8.86392 14.1812 8.83104L14.4517 8.72256L14.3624 8.79072C14.416 8.77464 14.3888 8.777 14.4057 8.79504C14.429 8.79019 14.5168 8.74445 14.4815 8.77421C14.3774 8.86191 14.2009 8.97797 14.081 9.07071L13.3803 9.60154C13.1731 9.7586 12.8161 9.98472 12.5958 10.125L12.3225 10.2987C12.2389 10.3611 12.2028 10.3657 12.1764 10.3874C12.0789 10.4677 10.741 11.2806 10.5531 11.3898C10.3564 11.5042 10.1122 11.3613 10.1122 11.1363C10.1122 10.6231 10.1135 10.1412 10.0986 9.63154L10.0851 9.31853C10.0905 9.24413 10.0878 9.17026 10.0824 9.09586C10.0723 8.94576 10.082 8.67274 10.077 8.50392C10.0743 8.45146 10.0689 8.39924 10.0689 8.34672C10.0689 8.19792 10.0689 8.04888 10.0662 7.90004L10.0472 7.31568L10.031 6.30845C10.0283 6.03749 10.3197 5.82365 10.6208 6.00111C10.8156 6.11016 11.0103 6.21946 11.2024 6.33226L11.9031 6.76109C11.9465 6.78701 11.9844 6.81596 12.0277 6.84274ZM3.68147 2.13696L2.96454 2.13615C2.96723 2.22677 2.96996 2.3174 2.96723 2.40831C2.96103 2.65123 2.97755 2.93376 2.97807 3.18015L2.98076 4.0272L2.951 6.0541C2.94495 6.60178 2.92427 7.14797 2.92667 7.69522C2.92935 8.00309 2.92124 8.31068 2.92124 8.61855L2.90502 10.2383L2.89691 11.0537C2.89316 11.2098 2.92019 11.2305 2.88068 11.4095L2.86446 11.7593C2.86172 11.8185 2.86715 11.8805 2.86446 11.9405C2.85515 12.2379 2.85236 12.5648 2.82659 12.8598C2.80911 13.0599 2.86561 13.4237 2.8239 13.4937C2.80518 13.5267 2.80316 13.7306 2.80225 13.7745C2.79927 13.9229 2.82001 14.1072 2.78871 14.2699C3.03659 14.2686 3.39971 14.2536 3.61388 14.2667C3.64633 14.2685 3.6842 14.2683 3.71939 14.2667C3.98723 14.2534 4.26049 14.2623 4.53102 14.258C4.77452 14.2545 5.01798 14.2542 5.26148 14.2529L9.41156 14.2285C10.4579 14.228 11.0679 14.3429 11.6868 15.2693L11.6841 14.985C11.6977 14.9547 11.6787 14.9246 11.6814 14.8944L11.6706 14.6906L11.7139 14.2867L11.7545 13.6756C11.7571 13.6593 11.7347 13.6431 11.768 13.6255C11.7818 13.6182 11.7899 13.5348 11.7951 13.5076L11.5976 13.4943C10.8326 13.4466 9.96299 13.1231 9.33318 12.7052C8.23124 11.9739 7.45796 10.7713 7.26356 9.46488C7.16219 8.78357 7.21129 8.19432 7.36907 7.53946C7.43233 7.27685 7.48575 7.17115 7.5747 6.94181C7.93379 6.01555 8.63982 5.18904 9.51179 4.70444C9.72755 4.58453 10.2151 4.39599 10.4343 4.33244C10.6569 4.26792 11.1513 4.18724 11.4029 4.19309C11.4426 4.194 11.664 4.20264 11.6843 4.21719C11.7221 4.24507 11.7871 4.25343 11.852 4.26831C11.8959 4.27776 11.8991 4.30272 12.0522 4.32701C11.9846 4.33892 11.9169 4.3454 11.8764 4.37055C11.8564 4.38269 11.7532 4.37204 11.6735 4.41034C11.5703 4.45988 11.3627 4.4461 11.0999 4.57268L10.8213 4.66085C10.4293 4.77668 10.241 4.90277 9.8798 5.11426C9.75486 5.18741 9.41449 5.42799 9.32247 5.54064L9.10335 5.7625L9.01676 5.8669C8.90315 5.97619 8.8274 6.10579 8.74623 6.23184C8.68436 6.3276 8.58116 6.4596 8.5298 6.55325C8.12238 7.29648 7.88723 8.1361 7.95087 8.98056C8.05499 10.3621 8.77417 11.5441 9.97182 12.25C10.398 12.5012 10.6251 12.5676 11.0567 12.6975C11.2622 12.7607 11.6266 12.8024 11.8494 12.8138C12.6467 12.8465 13.509 12.6175 14.1868 12.2151C15.032 11.7135 15.6976 10.8967 15.9995 9.96015C16.2097 9.30787 16.2482 8.56315 16.1185 7.88674C16.0188 7.3669 15.7821 6.78605 15.4746 6.35708C15.4368 6.3062 15.407 6.25104 15.3691 6.20098L15.1987 5.99808C15.1453 5.9292 15.1306 5.88461 15.0851 5.83493C14.9466 5.68402 14.8655 5.5992 14.709 5.47052C14.2727 5.11167 13.8492 4.82482 13.2968 4.68404C13.2563 4.67429 13.2183 4.66239 13.194 4.64021C13.1548 4.60392 12.8987 4.54229 12.8315 4.53413C12.7147 4.51997 12.1524 4.43832 12.0523 4.39239C12.0976 4.37607 12.2638 4.36868 12.3201 4.36964C12.3147 4.36748 12.3066 4.36479 12.3012 4.36368C12.2335 4.34957 12.303 4.34131 12.3039 4.34093C12.3147 4.33445 12.3229 4.32768 12.3337 4.3212C12.313 4.30205 12.1379 4.29327 12.2525 4.27767C12.383 4.25991 12.5785 4.26864 12.7124 4.27767C13.1508 4.30719 13.6572 4.42042 14.0651 4.5866C14.4568 4.74615 14.7306 4.9058 15.0715 5.15852C15.6904 5.61735 16.1697 6.32079 16.454 7.02768L16.5108 7.17812C16.5878 7.3644 16.5837 7.43376 16.6082 7.49736C16.6618 7.63656 16.6998 7.85804 16.7246 8.00842C16.8304 8.65196 16.7982 9.28426 16.6488 9.91004C16.3088 11.334 15.2274 12.5596 13.8839 13.1279C13.7156 13.199 13.4544 13.3067 13.2751 13.3489C12.9048 13.4361 12.6188 13.4967 12.2335 13.5096C12.3148 13.6336 12.2922 13.8145 12.3066 13.8432C12.3213 13.8726 12.2984 13.8723 12.3066 13.881L12.3445 14.2395L12.3499 14.5574L12.3715 14.7008C12.3757 14.7294 12.3624 14.7133 12.3742 14.7687C12.3853 14.8206 12.376 14.8734 12.3796 14.9051C12.3824 14.917 12.3878 14.9289 12.3878 14.9413C12.3878 15.043 12.4074 15.1539 12.4175 15.2478C12.6224 14.9344 12.8713 14.6312 13.2156 14.4554C13.7544 14.1803 14.2972 14.1961 14.8794 14.1935L21.4887 14.151L21.3697 12.8146C21.3174 12.2237 21.2723 11.7114 21.2669 11.1134L21.2479 9.64546L21.2127 7.04852L21.2073 5.01759L21.2046 4.70645C21.1938 4.52818 21.1992 4.3488 21.1965 4.16996L21.183 3.65919C21.1884 3.53688 21.183 3.4165 21.1803 3.29448C21.1685 2.903 21.1811 2.49764 21.1668 2.10682L20.1198 2.12684L17.4036 2.14877L15.9318 2.13389C15.6937 2.12996 15.3515 2.13927 15.1283 2.12199L14.4571 2.12156C14.0875 2.12117 13.7449 2.13543 13.421 2.32335C13.2113 2.44498 13.1727 2.51496 13.0178 2.65234C12.8055 2.84064 12.3966 3.51571 12.1657 3.79483C12.1575 3.80429 12.1494 3.81351 12.1413 3.82272C12.1332 3.85733 12.1251 3.89199 12.117 3.92659C12.1125 3.96504 12.0914 3.94407 12.0467 4.09056C12.0365 4.12388 12.013 4.13026 11.9817 4.25803C11.9736 4.20855 11.9682 4.16064 11.952 4.1244C11.9114 4.17255 11.9087 4.17744 11.8789 4.24508C11.8816 4.18608 11.887 4.12901 11.8735 4.08816C11.8622 4.06071 11.9012 3.97781 11.8843 3.90826C11.8762 3.87797 11.8789 3.84197 11.8843 3.80381C11.8248 3.71208 11.7626 3.62583 11.6949 3.55032C11.6127 3.45807 11.483 3.14876 11.3189 2.92349C11.1551 2.69871 11.0332 2.52461 10.8211 2.35239C10.7066 2.25946 10.6491 2.25024 10.5208 2.19763C10.3718 2.13653 10.3992 2.16389 10.3477 2.14733C10.234 2.1084 10.115 2.11052 9.99054 2.11133C9.91748 2.11186 9.84174 2.10159 9.76599 2.10024L9.23305 2.11349C8.88404 2.12943 8.53235 2.11728 8.18065 2.12324C7.9994 2.12621 7.81811 2.12429 7.63417 2.11997C7.5422 2.11781 7.4475 2.12295 7.35548 2.12295L5.86211 2.12592L4.98284 2.12698C4.80971 2.12972 4.63657 2.1324 4.46612 2.13485L3.68147 2.13696ZM12.144 3.81322C12.1467 3.80592 12.1494 3.79915 12.1548 3.79128L12.1413 3.82186C12.144 3.81893 12.144 3.8162 12.144 3.81322ZM2.26926 2.33391L2.27737 3.30029L2.28011 3.7824C2.28553 3.91306 2.29091 4.04458 2.29364 4.17524C2.29638 4.35432 2.29095 4.53341 2.30175 4.71173V5.02287L2.30718 6.29064V7.05303L2.34505 9.64805L2.36401 11.1157C2.37011 11.7915 2.44854 12.7366 2.52092 13.4164C2.55083 13.6972 2.56537 13.9991 2.60209 14.2711C2.45828 14.2711 2.34908 14.3804 2.35047 14.5213L2.36401 16.6516C2.36401 16.7855 2.47043 16.8899 2.60209 16.8869C4.36019 16.8483 6.10902 16.7198 7.8614 16.6627C7.98347 16.6587 8.72055 16.6418 8.67303 16.6134C8.61351 16.5999 8.51881 16.6067 8.47556 16.5883C8.57982 16.5413 8.63492 16.5607 8.49452 16.5396C8.59547 16.536 8.86671 16.5327 8.94635 16.5155C8.66147 16.4428 7.91151 16.4158 7.59635 16.4276C7.50179 16.4313 7.00451 16.4199 6.94436 16.4024C6.83463 16.3705 5.95955 16.4101 5.71071 16.3994C5.41311 16.387 5.11283 16.387 4.81523 16.3813C4.51763 16.3759 4.21734 16.3759 3.91705 16.3751C3.69841 16.3743 3.03827 16.3849 2.89983 16.3686L2.90526 14.8282L8.48382 14.8539C8.88342 14.8568 9.81764 14.839 10.2153 14.9229C10.853 15.0574 11.1171 15.5463 11.411 16.106C11.5139 16.2994 11.6113 16.5015 11.733 16.7114C11.8732 16.9573 12.2317 16.9544 12.3687 16.7136L12.7773 15.9737C13.0083 15.5625 13.2767 15.1349 13.7431 14.9911C14.0896 14.8842 14.6441 14.8958 15.0282 14.8923C15.2771 14.8907 15.5287 14.8872 15.7803 14.8905C16.1969 14.8945 16.6108 14.8753 17.0302 14.8877C17.2764 14.8953 17.528 14.8897 17.7796 14.8897L21.1452 14.8842V16.2911L18.8483 16.2743C18.667 16.2734 18.4857 16.2781 18.3045 16.2751C17.9474 16.2699 17.593 16.267 17.2358 16.2713C16.564 16.2791 15.8237 16.2712 15.1554 16.3045C14.5934 16.3326 14.1452 16.5694 13.8081 17.0239L13.6701 17.2503C13.5483 17.4884 13.4347 17.7265 13.2913 17.9646C13.2832 17.9757 13.2751 17.9894 13.2697 18.0008C13.1937 18.1662 13.113 18.2853 13.0316 18.4372C12.3675 18.4477 11.6769 18.4434 11.0215 18.4696C10.8578 18.2029 10.5522 17.6354 10.4046 17.4394C10.226 17.2022 10.139 17.0361 9.88791 16.8339C9.80132 16.7636 9.70393 16.7079 9.6255 16.6865C9.57231 16.6714 9.3218 16.5782 9.26295 16.581C9.18179 16.5866 9.06548 16.5729 8.94639 16.581C9.07959 16.6038 9.09639 16.6025 9.22777 16.6673C9.33678 16.721 9.43935 16.7651 9.4983 16.8366C9.53814 16.885 9.76523 16.9964 9.96361 17.3588L10.1016 17.6366C10.2991 18.0374 10.4825 18.4163 10.6968 18.8153C10.6535 18.7899 11.0756 19.0385 10.897 18.9333L11.3407 18.9503L12.0414 18.9933C12.4283 19.0069 12.8151 19.0188 13.2047 19.0266C13.3323 19.0291 13.4188 18.9671 13.4888 18.861C13.6132 18.656 13.735 18.449 13.8594 18.241L14.3058 17.4926C14.4897 17.1866 14.802 17.0172 15.1635 17.0032L15.7208 16.9943C16.2228 17.0056 16.7722 16.9898 17.2818 16.993L19.135 17.0092L21.5049 17.0281C21.7132 17.0276 21.881 16.8588 21.881 16.6515L21.8729 14.5167C21.8729 14.3863 21.8026 14.2727 21.7024 14.2077C21.7024 14.185 21.7052 14.1623 21.7079 14.1385C21.7157 14.0259 21.6958 13.5479 21.7268 13.4929C21.763 13.4289 21.7149 13.0347 21.7323 12.8591C21.7546 12.6249 21.7596 12.1897 21.7674 11.9395C21.7701 11.8791 21.7647 11.8172 21.7674 11.7577L21.7863 11.4076C21.8211 11.2909 21.797 11.173 21.7999 11.0521L21.808 10.2362L21.8242 8.61514C21.8242 8.30756 21.8323 7.99963 21.8296 7.69205C21.8272 7.14442 21.8479 6.59736 21.854 6.04988L21.8837 4.02192L21.8756 2.7888C21.8729 2.65973 21.8702 2.53071 21.8729 2.40192C21.8756 2.19039 21.8567 1.98015 21.8702 1.7678C21.8811 1.57704 21.7349 1.41476 21.5428 1.4042L21.11 1.39935L18.2314 1.40962L16.738 1.4126C16.6461 1.4126 16.5514 1.41773 16.4594 1.41557C16.2754 1.41125 16.0942 1.40933 15.9129 1.41207C15.5612 1.41826 15.2095 1.4064 14.8578 1.42205C14.7189 1.42757 14.1446 1.44696 14.0354 1.46722L13.5592 1.58789C13.4617 1.64506 13.3044 1.6681 13.1588 1.79213L12.9424 1.95932C12.6977 2.17786 12.5232 2.40408 12.3796 2.69141L12.0685 3.28172C12.0422 3.33332 12.0435 3.36216 12.0252 3.41237C11.8358 2.9126 11.7995 2.80661 11.5139 2.30828C11.4058 2.11968 11.2059 1.91213 11.0242 1.78368C10.4496 1.37756 9.68646 1.41384 9.01681 1.41413C9.00059 1.41413 8.98163 1.41466 8.9654 1.41332C8.74177 1.39589 8.3979 1.40549 8.15919 1.40141C6.75404 1.37741 5.34111 1.3897 3.93337 1.40952L2.59662 1.43084C2.41263 1.43247 2.26383 1.58261 2.26383 1.76765V2.07663C2.26383 2.16269 2.26926 2.24818 2.26926 2.33391Z" fill="#418FC3"/>
</g>
</svg>
