<svg width="25" height="25" viewBox="0 0 25 25" fill="none" xmlns="http://www.w3.org/2000/svg">
<g id="fi_103089">
<g id="Group">
<path id="Vector" d="M23.4589 6.45792H1.5411C0.691341 6.45792 0 7.14926 0 7.99902V12.6957C0 13.5454 0.691341 14.2368 1.5411 14.2368H15.2397C15.4424 14.2368 15.6067 14.0725 15.6067 13.8699C15.6067 13.6672 15.4424 13.5029 15.2397 13.5029H1.5411C1.09599 13.5029 0.733855 13.1408 0.733855 12.6957V7.99902C0.733855 7.55391 1.09599 7.19178 1.5411 7.19178H23.4589C23.904 7.19178 24.2661 7.55391 24.2661 7.99902V11.5215C24.2661 11.7242 24.4304 11.8885 24.6331 11.8885C24.8357 11.8885 25 11.7242 25 11.5215V7.99902C25 7.14926 24.3087 6.45792 23.4589 6.45792Z" fill="#48515C"/>
<path id="Vector_2" d="M23.4346 12.3891V11.9129C23.4346 10.1999 22.0409 8.80626 20.3279 8.80626C18.6149 8.80626 17.2213 10.1999 17.2213 11.9129V12.3891C16.7668 12.5427 16.4385 12.9728 16.4385 13.4785V17.3924C16.4385 18.0263 16.9542 18.5421 17.5882 18.5421H23.0676C23.7016 18.5421 24.2173 18.0263 24.2173 17.3924V13.4785C24.2173 12.9728 23.8891 12.5427 23.4346 12.3891ZM20.3279 9.54011C21.6363 9.54011 22.7007 10.6045 22.7007 11.9129V12.3288H17.9551V11.9129C17.9551 10.6045 19.0195 9.54011 20.3279 9.54011ZM23.4835 17.3924C23.4835 17.6217 23.2969 17.8082 23.0676 17.8082H17.5882C17.3589 17.8082 17.1723 17.6217 17.1723 17.3924V13.4785C17.1723 13.2492 17.3589 13.0626 17.5882 13.0626H23.0676C23.2969 13.0626 23.4835 13.2492 23.4835 13.4785V17.3924Z" fill="#48515C"/>
<path id="Vector_3" d="M5.95449 9.38111C5.85317 9.20558 5.62875 9.1455 5.45326 9.24682L4.64783 9.71184V8.7818C4.64783 8.57916 4.48355 8.41487 4.28091 8.41487C4.07826 8.41487 3.91398 8.57916 3.91398 8.7818V9.71184L3.10855 9.24682C2.93306 9.14545 2.70865 9.20562 2.60732 9.38111C2.506 9.5566 2.56613 9.78102 2.74162 9.88234L3.54705 10.3474L2.74162 10.8124C2.56613 10.9137 2.506 11.1381 2.60732 11.3136C2.67528 11.4313 2.79862 11.4971 2.92543 11.4971C2.98766 11.4971 3.05077 11.4813 3.10855 11.4479L3.91398 10.9829V11.9129C3.91398 12.1156 4.07826 12.2798 4.28091 12.2798C4.48355 12.2798 4.64783 12.1156 4.64783 11.9129V10.9829L5.45326 11.4479C5.51104 11.4813 5.57415 11.4971 5.63639 11.4971C5.7632 11.4971 5.88653 11.4313 5.95449 11.3136C6.05581 11.1381 5.99568 10.9137 5.82019 10.8124L5.01476 10.3474L5.82019 9.88234C5.99568 9.78102 6.05581 9.5566 5.95449 9.38111Z" fill="#48515C"/>
<path id="Vector_4" d="M10.651 9.38111C10.5497 9.20558 10.3253 9.1455 10.1498 9.24682L9.34437 9.71184V8.7818C9.34437 8.57916 9.18008 8.41487 8.97744 8.41487C8.7748 8.41487 8.61051 8.57916 8.61051 8.7818V9.71184L7.80508 9.24682C7.62959 9.14545 7.40518 9.20562 7.30386 9.38111C7.20254 9.5566 7.26266 9.78102 7.43815 9.88234L8.24358 10.3474L7.43815 10.8124C7.26266 10.9137 7.20254 11.1381 7.30386 11.3136C7.37181 11.4313 7.49515 11.4971 7.62196 11.4971C7.68419 11.4971 7.7473 11.4813 7.80508 11.4479L8.61051 10.9829V11.9129C8.61051 12.1156 8.7748 12.2798 8.97744 12.2798C9.18008 12.2798 9.34437 12.1156 9.34437 11.9129V10.9829L10.1498 11.4479C10.2076 11.4813 10.2707 11.4971 10.3329 11.4971C10.4597 11.4971 10.5831 11.4313 10.651 11.3136C10.7523 11.1381 10.6922 10.9137 10.5167 10.8124L9.71129 10.3474L10.5167 9.88234C10.6922 9.78102 10.7523 9.5566 10.651 9.38111Z" fill="#48515C"/>
<path id="Vector_5" d="M15.3478 9.38111C15.2465 9.20558 15.0221 9.1455 14.8466 9.24682L14.0411 9.71184V8.7818C14.0411 8.57916 13.8769 8.41487 13.6742 8.41487C13.4716 8.41487 13.3073 8.57916 13.3073 8.7818V9.71184L12.5019 9.24682C12.3264 9.14545 12.102 9.20562 12.0006 9.38111C11.8993 9.5566 11.9594 9.78102 12.1349 9.88234L12.9404 10.3474L12.1349 10.8124C11.9594 10.9137 11.8993 11.1381 12.0006 11.3136C12.0686 11.4313 12.1919 11.4971 12.3187 11.4971C12.381 11.4971 12.4441 11.4813 12.5019 11.4479L13.3073 10.9829V11.9129C13.3073 12.1156 13.4716 12.2798 13.6742 12.2798C13.8769 12.2798 14.0411 12.1156 14.0411 11.9129V10.9829L14.8466 11.4479C14.9044 11.4813 14.9675 11.4971 15.0297 11.4971C15.1565 11.4971 15.2798 11.4313 15.3478 11.3136C15.4491 11.1381 15.389 10.9137 15.2135 10.8124L14.4081 10.3474L15.2135 9.88234C15.389 9.78102 15.4491 9.5566 15.3478 9.38111Z" fill="#48515C"/>
<path id="Vector_6" d="M20.3277 13.8943C19.6937 13.8943 19.178 14.4101 19.178 15.044C19.178 15.5497 19.5063 15.9798 19.9608 16.1334V16.6096C19.9608 16.8122 20.125 16.9765 20.3277 16.9765C20.5303 16.9765 20.6946 16.8122 20.6946 16.6096V16.1334C21.1491 15.9798 21.4774 15.5497 21.4774 15.044C21.4774 14.4101 20.9616 13.8943 20.3277 13.8943ZM20.3277 15.4599C20.0984 15.4599 19.9118 15.2733 19.9118 15.044C19.9118 14.8147 20.0984 14.6282 20.3277 14.6282C20.557 14.6282 20.7435 14.8147 20.7435 15.044C20.7435 15.2733 20.557 15.4599 20.3277 15.4599Z" fill="#48515C"/>
</g>
</g>
</svg>
