<svg width="24" height="24" viewBox="0 0 24 24" fill="none" xmlns="http://www.w3.org/2000/svg">
<path fill-rule="evenodd" clip-rule="evenodd" d="M12 11.8359C12.5238 11.8359 13.0358 11.9913 13.4714 12.2823C13.9069 12.5733 14.2464 12.9869 14.4468 13.4709C14.6473 13.9548 14.6997 14.4873 14.5975 15.0011C14.4953 15.5148 14.2431 15.9867 13.8727 16.3571C13.5023 16.7275 13.0304 16.9797 12.5167 17.0819C12.0029 17.1841 11.4704 17.1317 10.9865 16.9312C10.5025 16.7308 10.0889 16.3913 9.79788 15.9558C9.50687 15.5202 9.35154 15.0082 9.35154 14.4844C9.35154 13.782 9.63057 13.1083 10.1272 12.6116C10.6239 12.115 11.2976 11.8359 12 11.8359ZM7.20804 7.00739C7.20636 7.06171 7.22201 7.11516 7.25273 7.15999C7.28345 7.20482 7.32764 7.23872 7.3789 7.25677L8.89029 7.83066L9.06898 5.65331L7.20804 4.99523V7.00739ZM9.44323 8.04061L11.9044 8.9752C11.9658 8.99972 12.0342 8.99972 12.0955 8.9752L16.6211 7.25677C16.6723 7.23873 16.7165 7.20483 16.7472 7.16C16.778 7.11516 16.7936 7.06171 16.7919 7.00739V4.99523L12.2779 6.59147C12.0984 6.65747 11.9013 6.65747 11.7218 6.59147L9.6229 5.84925L9.44309 8.04061H9.44323ZM16.7919 7.79878C16.7919 7.99566 16.8299 8.19253 16.6211 8.27222L12.0955 9.99066C12.0342 10.0152 11.9658 10.0152 11.9044 9.99066L9.36246 9.02541L9.39495 8.62941L11.7047 9.50625C11.8945 9.58121 12.1058 9.58121 12.2957 9.50625L16.7921 7.79888L16.7919 7.79878ZM8.84201 8.41922L8.80953 8.81527L7.3789 8.27203C7.17003 8.19272 7.20804 7.99547 7.20804 7.79859L8.84201 8.41922ZM8.54201 11.0776V12.4922H9.2756V11.0775C9.2756 10.9802 9.23696 10.8869 9.16817 10.8181C9.09938 10.7493 9.00609 10.7107 8.90881 10.7107C8.81153 10.7107 8.71823 10.7493 8.64944 10.8181C8.58065 10.8869 8.54201 10.9802 8.54201 11.0775V11.0776ZM7.97342 12.7767C7.97342 12.8521 8.00338 12.9244 8.05671 12.9778C8.11005 13.0311 8.18238 13.0611 8.25781 13.0611H9.56013C9.63556 13.0611 9.7079 13.0311 9.76123 12.9778C9.81456 12.9244 9.84453 12.8521 9.84453 12.7767V11.0776C9.84452 10.8922 9.78944 10.711 9.68627 10.5569C9.58311 10.4028 9.4365 10.2829 9.26506 10.2122L9.31413 9.61378L11.7047 10.5215C11.8945 10.5964 12.1058 10.5964 12.2957 10.5215L16.8212 8.80303C16.9803 8.74389 17.1173 8.63733 17.2138 8.49776C17.3103 8.35819 17.3617 8.19234 17.3608 8.02266V4.79409L19.5524 4.01906C19.6193 3.99553 19.68 3.95706 19.7299 3.90657C19.7797 3.85609 19.8174 3.79491 19.8401 3.72768C19.8628 3.66045 19.8698 3.58894 19.8608 3.51857C19.8517 3.44821 19.8267 3.38083 19.7877 3.32156L19.7882 3.32123C19.7322 3.23552 19.6492 3.17089 19.5524 3.13753L12.278 0.565124C12.0985 0.499125 11.9014 0.499125 11.722 0.565124L4.44757 3.13753C4.38064 3.16106 4.31994 3.19953 4.27009 3.25002C4.22024 3.3005 4.18255 3.36168 4.15987 3.42891C4.13719 3.49614 4.13012 3.56765 4.13919 3.63802C4.14827 3.70838 4.17326 3.77576 4.21226 3.83503L4.21174 3.83536C4.2678 3.92106 4.35076 3.98569 4.44757 4.01906L6.63931 4.79409V8.02266C6.63847 8.19236 6.68977 8.35823 6.78629 8.49782C6.8828 8.63741 7.01986 8.74398 7.17893 8.80313L8.7612 9.40392L8.69871 10.1659C8.49259 10.2136 8.30869 10.3296 8.17698 10.4952C8.04528 10.6608 7.97352 10.8661 7.97342 11.0776V12.7767ZM11.8355 3.34725L9.32557 5.14186L4.90404 3.5783L11.9109 1.10053C11.9684 1.07906 12.0316 1.07906 12.089 1.10053L19.0959 3.5783L12.089 6.05625C12.0316 6.07772 11.9684 6.07772 11.9109 6.05625L9.97812 5.37277L12.1645 3.80958C12.1953 3.78818 12.2215 3.76088 12.2417 3.72926C12.2619 3.69764 12.2756 3.66232 12.2821 3.62536C12.2885 3.5884 12.2876 3.55053 12.2793 3.51394C12.271 3.47735 12.2555 3.44277 12.2338 3.4122C12.212 3.38163 12.1844 3.35569 12.1526 3.33586C12.1207 3.31603 12.0853 3.30273 12.0482 3.29671C12.0112 3.29069 11.9733 3.29208 11.9368 3.30079C11.9003 3.30951 11.8659 3.32538 11.8356 3.34748L11.8355 3.34725ZM8.45201 18.0211C8.15647 17.8789 7.83245 17.8058 7.50448 17.8072H5.42403C4.83734 17.8092 4.27524 18.0432 3.86039 18.458C3.44554 18.8729 3.21162 19.435 3.20965 20.0217V20.2842C3.73501 20.7717 4.36316 21.1351 5.04771 21.3474C5.73227 21.5597 6.45578 21.6156 7.16482 21.5109C7.11516 21.4583 7.08755 21.3886 7.08767 21.3162V20.8149C7.08826 20.2763 7.2114 19.7448 7.44778 19.2608C7.68416 18.7768 8.02757 18.3529 8.45201 18.0212V18.0211ZM7.94159 21.4486C7.84434 21.3674 7.74928 21.2832 7.6564 21.196V20.8149C7.65892 20.0245 7.97404 19.2671 8.53298 18.7082C9.09191 18.1493 9.84926 17.8341 10.6397 17.8316H13.3603C13.5563 17.8316 13.7519 17.8509 13.9441 17.8894V17.8883C14.6196 18.0258 15.227 18.3919 15.6641 18.925C16.1011 19.4581 16.341 20.1256 16.3434 20.8149V21.1957L16.0606 21.4458L16.061 21.4464L15.6033 21.794C14.5078 22.5495 13.2026 22.9416 11.8721 22.9148C10.5416 22.8881 9.25322 22.4437 8.18904 21.6447L7.94168 21.4486H7.94159ZM7.70285 21.9849C6.82822 22.1924 5.91543 22.1764 5.04859 21.9384C4.18176 21.7004 3.38877 21.2481 2.74268 20.6231C2.71078 20.5964 2.68512 20.5631 2.66753 20.5254C2.64994 20.4877 2.64083 20.4466 2.64087 20.4051V20.0217C2.64284 19.2841 2.93669 18.5774 3.45821 18.0559C3.97973 17.5343 4.68649 17.2405 5.42403 17.2385H7.50467C8.03078 17.2394 8.54581 17.3897 8.98985 17.6719C9.49822 17.4029 10.0647 17.2626 10.6399 17.2631H13.3603C13.5936 17.263 13.8264 17.2861 14.0552 17.3319V17.333C14.3879 17.3994 14.7093 17.5136 15.0094 17.6719C15.4535 17.3889 15.9691 17.2385 16.4957 17.2383H18.5762C19.3134 17.2412 20.0196 17.5354 20.541 18.0567C21.0623 18.578 21.3564 19.2842 21.3593 20.0215V20.4048H21.3585C21.3585 20.5554 21.247 20.6363 21.1356 20.7376L20.9627 20.8882L20.9622 20.8876C19.6908 21.9672 17.922 22.3694 16.2971 21.9848C15.0753 22.9557 13.5607 23.4842 12.0001 23.4842C10.4395 23.4842 8.92488 22.9557 7.70309 21.9848L7.70285 21.9849ZM6.46428 12.7577C6.87807 12.7577 7.28257 12.8804 7.62663 13.1103C7.97068 13.3402 8.23884 13.667 8.39719 14.0493C8.55554 14.4316 8.59697 14.8522 8.51625 15.2581C8.43552 15.6639 8.23626 16.0367 7.94367 16.3293C7.65107 16.6219 7.27828 16.8212 6.87244 16.9019C6.4666 16.9827 6.04593 16.9412 5.66363 16.7829C5.28132 16.6245 4.95456 16.3564 4.72465 16.0123C4.49475 15.6683 4.37203 15.2638 4.37201 14.85C4.37203 14.2951 4.59248 13.763 4.98485 13.3706C5.37722 12.9782 5.90938 12.7578 6.46428 12.7578V12.7577ZM7.54156 13.7726C7.32849 13.5596 7.05704 13.4145 6.76153 13.3557C6.46602 13.297 6.15971 13.3271 5.88135 13.4424C5.60298 13.5578 5.36506 13.753 5.19767 14.0035C5.03028 14.2541 4.94093 14.5486 4.94093 14.8499C4.94093 15.1512 5.03028 15.4457 5.19767 15.6963C5.36506 15.9468 5.60298 16.1421 5.88135 16.2574C6.15971 16.3727 6.46602 16.4029 6.76153 16.3441C7.05704 16.2853 7.32849 16.1402 7.54156 15.9272C7.68304 15.7857 7.79526 15.6178 7.87183 15.4329C7.9484 15.2481 7.98781 15.05 7.98781 14.8499C7.98781 14.6498 7.9484 14.4517 7.87183 14.2669C7.79526 14.082 7.68304 13.9141 7.54156 13.7726ZM16.8341 21.5109C17.5007 21.6095 18.1805 21.5662 18.8292 21.384C19.4779 21.2018 20.0809 20.8847 20.5986 20.4534L20.5981 20.4529L20.7903 20.2839V20.0217C20.7891 19.4348 20.5554 18.8722 20.1404 18.4572C19.7254 18.0422 19.1628 17.8085 18.5759 17.8072H16.4953C16.1671 17.8067 15.8429 17.8799 15.5468 18.0215C15.9713 18.3532 16.3148 18.777 16.5514 19.2609C16.788 19.7449 16.9114 20.2763 16.9125 20.8149V21.3162H16.9116C16.9117 21.3886 16.884 21.4583 16.8342 21.5109H16.8341ZM17.5359 12.7577C17.9497 12.7577 18.3542 12.8805 18.6982 13.1104C19.0422 13.3403 19.3104 13.6671 19.4687 14.0494C19.627 14.4317 19.6684 14.8524 19.5877 15.2582C19.5069 15.664 19.3077 16.0368 19.0151 16.3294C18.7225 16.622 18.3497 16.8212 17.9438 16.9019C17.538 16.9826 17.1173 16.9412 16.735 16.7829C16.3527 16.6245 16.026 16.3564 15.7961 16.0123C15.5662 15.6683 15.4435 15.2638 15.4435 14.85C15.4435 14.5752 15.4976 14.3031 15.6027 14.0493C15.7079 13.7954 15.862 13.5647 16.0563 13.3704C16.2506 13.1762 16.4813 13.022 16.7352 12.9169C16.989 12.8118 17.2611 12.7577 17.5359 12.7577ZM18.6132 13.7726C18.4001 13.5596 18.1287 13.4145 17.8332 13.3557C17.5377 13.297 17.2314 13.3271 16.953 13.4424C16.6746 13.5578 16.4367 13.753 16.2693 14.0035C16.1019 14.2541 16.0126 14.5486 16.0126 14.8499C16.0126 15.1512 16.1019 15.4457 16.2693 15.6963C16.4367 15.9468 16.6746 16.1421 16.953 16.2574C17.2314 16.3727 17.5377 16.4029 17.8332 16.3441C18.1287 16.2853 18.4001 16.1402 18.6132 15.9272C18.7547 15.7857 18.8669 15.6178 18.9435 15.4329C19.02 15.2481 19.0595 15.05 19.0595 14.8499C19.0595 14.6498 19.02 14.4517 18.9435 14.2669C18.8669 14.082 18.7547 13.9141 18.6132 13.7726ZM13.471 13.0138C13.1801 12.7229 12.8096 12.5248 12.4061 12.4446C12.0027 12.3644 11.5845 12.4056 11.2045 12.563C10.8245 12.7204 10.4997 12.9869 10.2712 13.329C10.0427 13.671 9.92068 14.0731 9.92068 14.4844C9.92068 14.8957 10.0427 15.2978 10.2712 15.6398C10.4997 15.9818 10.8245 16.2484 11.2045 16.4058C11.5845 16.5632 12.0027 16.6044 12.4061 16.5242C12.8096 16.444 13.1801 16.2459 13.471 15.955C13.861 15.5649 14.08 15.0359 14.0799 14.4843C14.0798 13.9327 13.8607 13.4038 13.4706 13.0138H13.471Z" fill="#418FC3"/>
</svg>
