<svg width="24" height="24" viewBox="0 0 24 24" fill="none" xmlns="http://www.w3.org/2000/svg">
<path d="M16.9126 10.3266H12.8677C11.1858 10.3266 9.61646 11.1652 8.66912 12.5414C8.53693 12.3558 8.38599 12.18 8.21724 12.0183C7.52677 11.3569 6.62677 10.9955 5.67381 10.9955C5.64709 10.9955 5.6199 10.9959 5.59318 10.9964C4.61068 11.0175 3.69474 11.4197 3.01506 12.1294C2.3349 12.8391 1.97209 13.7709 1.99318 14.7534C2.01427 15.7359 2.41646 16.6519 3.12615 17.3316C4.14099 18.3037 5.61334 18.6098 6.9249 18.135L8.34943 19.5C8.4113 19.5591 8.49615 19.5872 8.58099 19.5759L9.64787 19.4344L9.55177 20.5059C9.54427 20.5912 9.57568 20.6752 9.63709 20.7342L10.2207 21.2934C10.2826 21.3525 10.3679 21.3806 10.4522 21.3694L11.5191 21.2278L11.423 22.2994C11.4155 22.3847 11.4469 22.4686 11.5083 22.5277L12.1683 23.16C12.2185 23.2083 12.2851 23.2359 12.3549 23.2383L14.3682 23.2973H14.3766C14.453 23.2973 14.5266 23.2659 14.5796 23.2106C14.6344 23.1534 14.6626 23.0752 14.6569 22.9959L14.5116 20.9869C14.5065 20.9175 14.476 20.8523 14.4258 20.8041L12.6605 19.1128H21.7261C21.8813 19.1128 22.0074 18.9867 22.0074 18.8316V15.4219C22.0079 12.6122 19.7222 10.3266 16.9126 10.3266ZM14.0738 22.7255L12.4801 22.6786L11.9958 22.2145L12.1111 20.9273C12.1186 20.842 12.0872 20.7581 12.0254 20.6991C11.9635 20.64 11.8786 20.6123 11.7938 20.6231L10.5127 20.7933L10.1241 20.4211L10.2394 19.1339C10.2469 19.0486 10.2155 18.9647 10.1541 18.9056C10.0927 18.8466 10.0074 18.8184 9.92255 18.8297L8.64146 18.9998L7.18506 17.6048C7.10396 17.5275 6.9849 17.5055 6.88177 17.5486C5.73521 18.0305 4.41381 17.7858 3.51615 16.9256C2.91474 16.3495 2.57396 15.5737 2.55615 14.7417C2.53834 13.9097 2.84584 13.1198 3.42193 12.5184C3.99802 11.917 4.77334 11.5763 5.60584 11.5584C6.43693 11.5402 7.22771 11.8481 7.82912 12.4242C8.72677 13.2844 9.02771 14.5941 8.59552 15.7603C8.55662 15.8653 8.58381 15.9834 8.6649 16.0613L13.9604 21.135L14.0738 22.7255ZM21.4454 18.5498H12.0736L9.1824 15.7795C9.46693 14.8748 9.38724 13.912 8.9888 13.0823C9.81052 11.7258 11.2838 10.8891 12.8682 10.8891H16.913C19.4124 10.8891 21.4458 12.9225 21.4458 15.4219V18.5498H21.4454ZM14.8904 9.92813C17.4338 9.92813 19.5029 7.85906 19.5029 5.31563C19.5029 2.77219 17.4338 0.703125 14.8904 0.703125C12.3469 0.703125 10.2779 2.77219 10.2779 5.31563C10.2779 7.85906 12.3469 9.92813 14.8904 9.92813ZM14.8904 1.26562C17.1235 1.26562 18.9404 3.0825 18.9404 5.31563C18.9404 7.54875 17.1235 9.36563 14.8904 9.36563C12.6572 9.36563 10.8404 7.54875 10.8404 5.31563C10.8404 3.0825 12.6572 1.26562 14.8904 1.26562ZM3.89771 12.9755C3.63006 13.2548 3.48756 13.6214 3.49552 14.0081C3.50349 14.3948 3.6624 14.7553 3.94131 15.0225C4.21271 15.2827 4.56709 15.4252 4.94209 15.4252C4.95287 15.4252 4.96318 15.4252 4.97396 15.4247C5.36068 15.4162 5.72115 15.2583 5.98834 14.9789C6.25599 14.6995 6.39849 14.333 6.39052 13.9462C6.38209 13.5595 6.22412 13.1991 5.94474 12.9319C5.36865 12.3797 4.45037 12.3989 3.89771 12.9755ZM5.58287 14.5898C5.41927 14.7605 5.19896 14.8575 4.96224 14.8627C4.72646 14.8683 4.50146 14.7806 4.33084 14.6166C4.16021 14.453 4.06318 14.2327 4.05802 13.9959C4.05287 13.7597 4.14006 13.5352 4.30412 13.3645C4.47802 13.1831 4.71052 13.0922 4.94349 13.0922C5.16381 13.0922 5.38459 13.1738 5.55568 13.3378C5.72631 13.5014 5.82334 13.7217 5.82849 13.9584C5.83365 14.1947 5.74646 14.4192 5.58287 14.5898Z" fill="#418FC3"/>
</svg>
