<svg width="25" height="25" viewBox="0 0 25 25" fill="none" xmlns="http://www.w3.org/2000/svg">
<g id="fi_15678795">
<g id="Group">
<path id="Vector" d="M2.85009 23.325C2.82509 23.325 2.82509 23.325 2.80009 23.325C2.47509 23.3 2.25009 23.025 2.27509 22.725C2.60009 17.95 7.10009 14.225 12.5001 14.225C17.9001 14.225 22.4001 17.95 22.7251 22.7C22.7501 23.025 22.5001 23.275 22.2001 23.3C21.8751 23.325 21.6251 23.075 21.6001 22.775C21.3001 18.6 17.3001 15.35 12.5001 15.35C7.67509 15.35 3.67509 18.625 3.40009 22.8C3.37509 23.1 3.12509 23.325 2.85009 23.325Z" fill="#48515C"/>
<path id="Vector_2" d="M12.5 13.075C9.35005 13.075 6.80005 10.525 6.80005 7.375C6.80005 4.225 9.35005 1.675 12.5 1.675C15.65 1.675 18.2 4.225 18.2 7.375C18.2 10.525 15.65 13.075 12.5 13.075ZM12.5 2.825C10 2.825 7.95005 4.875 7.95005 7.375C7.95005 9.875 10 11.925 12.5 11.925C15 11.925 17.05 9.875 17.05 7.375C17.05 4.875 15 2.825 12.5 2.825Z" fill="#48515C"/>
</g>
</g>
</svg>
