<svg width="25" height="25" viewBox="0 0 25 25" fill="none" xmlns="http://www.w3.org/2000/svg">
<g id="fi_2099100" clip-path="url(#clip0_142_175)">
<path id="Vector" d="M25 5.43864C25 4.17008 23.9679 3.138 22.6994 3.138H2.30064C1.03233 3.13805 0.000439455 4.16965 0 5.43904V5.43943V19.5605C0 20.845 1.04258 21.862 2.30143 21.862H22.6985C23.9829 21.862 25 20.8194 25 19.5605V5.43943C25 5.43933 25 5.43923 25 5.43913C25 5.43899 25 5.43884 25 5.43864ZM2.30064 4.6029H22.6994C23.1602 4.6029 23.5352 4.97785 23.5352 5.43987C23.5352 5.68537 23.4131 5.91326 23.2085 6.04958L12.9641 12.8795C12.6822 13.0674 12.3179 13.0675 12.0359 12.8795C12.0359 12.8795 1.79127 6.04944 1.79146 6.04958C1.79151 6.04963 1.79132 6.04949 1.79127 6.04944C1.58687 5.91326 1.46485 5.68537 1.46485 5.43864C1.46485 4.9778 1.8398 4.6029 2.30064 4.6029ZM22.6986 20.3971H2.30143C1.84542 20.3971 1.46485 20.0284 1.46485 19.5605V7.59241L11.2233 14.0982C11.6111 14.3568 12.0556 14.486 12.5 14.486C12.9445 14.486 13.389 14.3568 13.7767 14.0982L23.5352 7.59241V19.5606C23.5352 20.0165 23.1664 20.3971 22.6986 20.3971Z" fill="#48515C"/>
</g>
<defs>
<clipPath id="clip0_142_175">
<rect width="25" height="25" fill="white"/>
</clipPath>
</defs>
</svg>
