<svg width="25" height="25" viewBox="0 0 25 25" fill="none" xmlns="http://www.w3.org/2000/svg">
<g id="fi_2231649" clip-path="url(#clip0_9_5487)">
<g id="Page-1">
<g id="031---University">
<path id="Shape" d="M24.5833 22.1992V12.5C24.5822 12.4356 24.5658 12.3723 24.5354 12.3154H24.5396L23.5196 10.2758C23.3096 9.85063 22.8759 9.58199 22.4017 9.58333H19.5833V9.16667C19.5833 9.05617 19.5394 8.95021 19.4613 8.87208L17.2054 6.61625C17.0555 6.46786 16.87 6.36041 16.6667 6.30417V3.49375L17.5 3.27V4.27917V4.28209C17.4995 4.70996 17.7134 5.10963 18.0696 5.34667C18.1934 5.42929 18.352 5.43955 18.4854 5.3736C18.6189 5.30765 18.7071 5.1755 18.7167 5.02694C18.7263 4.87837 18.6559 4.73595 18.5321 4.65334C18.4078 4.57075 18.3331 4.43133 18.3333 4.28209V4.27917V3.00959C18.625 2.84113 18.7866 2.51366 18.7428 2.1797C18.699 1.84574 18.4585 1.57096 18.1333 1.48334L12.7142 0.0283351C12.5739 -0.00916019 12.4261 -0.00916019 12.2858 0.0283351L6.86667 1.48334C6.50223 1.58283 6.24943 1.91389 6.24943 2.29167C6.24943 2.66945 6.50223 3.00051 6.86667 3.1L8.33333 3.49375V6.25H8.30708C7.93665 6.25017 7.58547 6.41507 7.34875 6.7L5.51542 8.9C5.45225 8.97456 5.41729 9.06895 5.41667 9.16667V9.58333H2.59833C2.12447 9.58168 1.6909 9.84961 1.48042 10.2742L0.460417 12.3138H0.464583C0.43398 12.3711 0.417551 12.435 0.416667 12.5V22.1992C0.159687 22.3468 0.00089375 22.6203 0 22.9167V23.75C0 24.2102 0.373096 24.5833 0.833333 24.5833H6.36583C6.5135 24.8403 6.78695 24.9991 7.08333 25H17.9167C18.2131 24.9991 18.4865 24.8403 18.6342 24.5833H24.1667C24.6269 24.5833 25 24.2102 25 23.75V22.9167C24.9991 22.6203 24.8403 22.3468 24.5833 22.1992ZM18.3333 22.0833H17.9167V12.9167H23.75V22.0833H18.3333ZM13.75 22.0833H11.25V17.5H13.75V22.0833ZM14.1667 16.6667H10.8333C10.6032 16.6667 10.4167 16.8532 10.4167 17.0833V22.0833H7.91667V12.9167H17.0833V22.0833H14.5833V17.0833C14.5833 16.8532 14.3968 16.6667 14.1667 16.6667ZM18.75 9.58333V10.4167H6.25V9.58333H18.75ZM17.9167 11.25V12.0833H7.08333V11.25H17.9167ZM22.4017 10.4167C22.5596 10.4162 22.7041 10.5055 22.7742 10.6471L23.4925 12.0833H18.75V11.25C19.2102 11.25 19.5833 10.8769 19.5833 10.4167H22.4017ZM12.5 0.833335L17.9225 2.29167H17.9171L12.5021 3.75L7.08333 2.28834L12.5 0.833335ZM9.16667 3.7175L12.2858 4.555C12.4261 4.59277 12.5739 4.59277 12.7142 4.555L15.8333 3.7175V6.25H9.16667V3.7175ZM7.98708 7.23334C8.06621 7.13833 8.18344 7.08338 8.30708 7.08333H16.3213C16.4319 7.08325 16.538 7.12717 16.6163 7.20542L18.1608 8.75H6.72292L7.98708 7.23334ZM2.22583 10.6471C2.29591 10.5055 2.44039 10.4162 2.59833 10.4167H5.41667C5.41667 10.8769 5.78976 11.25 6.25 11.25V12.0833H1.5075L2.22583 10.6471ZM0.833333 22.9167H6.25V23.75H0.833333V22.9167ZM6.66667 22.0833H1.25V12.9167H7.08333V22.0833H6.66667ZM7.08333 24.1667V22.9167H17.9167V24.1667H7.08333ZM24.1667 23.75H18.75V22.9167H24.1667V23.75Z" fill="#48515C"/>
<path id="Shape_2" d="M11.2499 13.75C11.0198 13.75 10.8333 13.9365 10.8333 14.1667V15C10.8333 15.2301 11.0198 15.4167 11.2499 15.4167C11.48 15.4167 11.6666 15.2301 11.6666 15V14.1667C11.6666 13.9365 11.48 13.75 11.2499 13.75Z" fill="#48515C"/>
<path id="Shape_3" d="M5.41667 14.1667C5.18655 14.1667 5 14.3532 5 14.5833V15.4167C5 15.6468 5.18655 15.8333 5.41667 15.8333C5.64679 15.8333 5.83333 15.6468 5.83333 15.4167V14.5833C5.83333 14.3532 5.64679 14.1667 5.41667 14.1667Z" fill="#48515C"/>
<path id="Shape_4" d="M2.91667 14.1667C2.68655 14.1667 2.5 14.3532 2.5 14.5833V15.4167C2.5 15.6468 2.68655 15.8333 2.91667 15.8333C3.14679 15.8333 3.33333 15.6468 3.33333 15.4167V14.5833C3.33333 14.3532 3.14679 14.1667 2.91667 14.1667Z" fill="#48515C"/>
<path id="Shape_5" d="M5.41667 16.6667C5.18655 16.6667 5 16.8532 5 17.0833V17.9167C5 18.1468 5.18655 18.3333 5.41667 18.3333C5.64679 18.3333 5.83333 18.1468 5.83333 17.9167V17.0833C5.83333 16.8532 5.64679 16.6667 5.41667 16.6667Z" fill="#48515C"/>
<path id="Shape_6" d="M2.91667 16.6667C2.68655 16.6667 2.5 16.8532 2.5 17.0833V17.9167C2.5 18.1468 2.68655 18.3333 2.91667 18.3333C3.14679 18.3333 3.33333 18.1468 3.33333 17.9167V17.0833C3.33333 16.8532 3.14679 16.6667 2.91667 16.6667Z" fill="#48515C"/>
<path id="Shape_7" d="M5.41667 19.1667C5.18655 19.1667 5 19.3532 5 19.5833V20.4167C5 20.6468 5.18655 20.8333 5.41667 20.8333C5.64679 20.8333 5.83333 20.6468 5.83333 20.4167V19.5833C5.83333 19.3532 5.64679 19.1667 5.41667 19.1667Z" fill="#48515C"/>
<path id="Shape_8" d="M2.91667 19.1667C2.68655 19.1667 2.5 19.3532 2.5 19.5833V20.4167C2.5 20.6468 2.68655 20.8333 2.91667 20.8333C3.14679 20.8333 3.33333 20.6468 3.33333 20.4167V19.5833C3.33333 19.3532 3.14679 19.1667 2.91667 19.1667Z" fill="#48515C"/>
<path id="Shape_9" d="M22.0834 14.1667C21.8533 14.1667 21.6667 14.3532 21.6667 14.5833V15.4167C21.6667 15.6468 21.8533 15.8333 22.0834 15.8333C22.3135 15.8333 22.5001 15.6468 22.5001 15.4167V14.5833C22.5001 14.3532 22.3135 14.1667 22.0834 14.1667Z" fill="#48515C"/>
<path id="Shape_10" d="M19.5834 14.1667C19.3533 14.1667 19.1667 14.3532 19.1667 14.5833V15.4167C19.1667 15.6468 19.3533 15.8333 19.5834 15.8333C19.8135 15.8333 20.0001 15.6468 20.0001 15.4167V14.5833C20.0001 14.3532 19.8135 14.1667 19.5834 14.1667Z" fill="#48515C"/>
<path id="Shape_11" d="M22.0834 16.6667C21.8533 16.6667 21.6667 16.8532 21.6667 17.0833V17.9167C21.6667 18.1468 21.8533 18.3333 22.0834 18.3333C22.3135 18.3333 22.5001 18.1468 22.5001 17.9167V17.0833C22.5001 16.8532 22.3135 16.6667 22.0834 16.6667Z" fill="#48515C"/>
<path id="Shape_12" d="M19.5834 16.6667C19.3533 16.6667 19.1667 16.8532 19.1667 17.0833V17.9167C19.1667 18.1468 19.3533 18.3333 19.5834 18.3333C19.8135 18.3333 20.0001 18.1468 20.0001 17.9167V17.0833C20.0001 16.8532 19.8135 16.6667 19.5834 16.6667Z" fill="#48515C"/>
<path id="Shape_13" d="M22.0834 19.1667C21.8533 19.1667 21.6667 19.3532 21.6667 19.5833V20.4167C21.6667 20.6468 21.8533 20.8333 22.0834 20.8333C22.3135 20.8333 22.5001 20.6468 22.5001 20.4167V19.5833C22.5001 19.3532 22.3135 19.1667 22.0834 19.1667Z" fill="#48515C"/>
<path id="Shape_14" d="M19.5834 19.1667C19.3533 19.1667 19.1667 19.3532 19.1667 19.5833V20.4167C19.1667 20.6468 19.3533 20.8333 19.5834 20.8333C19.8135 20.8333 20.0001 20.6468 20.0001 20.4167V19.5833C20.0001 19.3532 19.8135 19.1667 19.5834 19.1667Z" fill="#48515C"/>
<path id="Shape_15" d="M13.7499 13.75C13.5198 13.75 13.3333 13.9365 13.3333 14.1667V15C13.3333 15.2301 13.5198 15.4167 13.7499 15.4167C13.98 15.4167 14.1666 15.2301 14.1666 15V14.1667C14.1666 13.9365 13.98 13.75 13.7499 13.75Z" fill="#48515C"/>
</g>
</g>
</g>
<defs>
<clipPath id="clip0_9_5487">
<rect width="25" height="25" fill="white"/>
</clipPath>
</defs>
</svg>
