<svg width="14" height="14" viewBox="0 0 14 14" fill="none" xmlns="http://www.w3.org/2000/svg">
<g id="fi_2976286" clip-path="url(#clip0_283_883)">
<g id="Group">
<g id="close_1_">
<path id="Vector" d="M1.32713 13.9123C0.983892 13.9323 0.646328 13.8182 0.385622 13.5941C-0.128541 13.0768 -0.128541 12.2415 0.385622 11.7243L11.6441 0.465744C12.1789 -0.0346629 13.018 -0.00684553 13.5184 0.527929C13.9709 1.01152 13.9973 1.75482 13.5802 2.26924L2.25537 13.5941C1.99803 13.8149 1.66588 13.9288 1.32713 13.9123Z" fill="#AFAFAF"/>
<path id="Vector_2" d="M12.5723 13.9124C12.2244 13.9109 11.891 13.7728 11.644 13.5278L0.385515 2.26923C-0.0908301 1.71297 -0.0260685 0.875829 0.530192 0.39944C1.02667 -0.0257248 1.75887 -0.0257248 2.25531 0.39944L13.5801 11.658C14.1148 12.1585 14.1424 12.9977 13.6419 13.5323C13.622 13.5536 13.6014 13.5742 13.5801 13.5941C13.3028 13.8352 12.9379 13.9505 12.5723 13.9124Z" fill="#AFAFAF"/>
</g>
</g>
</g>
<defs>
<clipPath id="clip0_283_883">
<rect width="14" height="14" fill="white"/>
</clipPath>
</defs>
</svg>
