<svg width="18" height="18" viewBox="0 0 18 18" fill="none" xmlns="http://www.w3.org/2000/svg">
<g clip-path="url(#clip0_63_505)">
<path d="M7.125 6H1.125C0.50475 6 0 5.49525 0 4.875V1.125C0 0.50475 0.50475 0 1.125 0H7.125C7.74525 0 8.25 0.50475 8.25 1.125V4.875C8.25 5.49525 7.74525 6 7.125 6ZM1.125 0.75C0.91875 0.75 0.75 0.918 0.75 1.125V4.875C0.75 5.082 0.91875 5.25 1.125 5.25H7.125C7.33125 5.25 7.5 5.082 7.5 4.875V1.125C7.5 0.918 7.33125 0.75 7.125 0.75H1.125Z" fill="#418FC3"/>
<path d="M7.125 18H1.125C0.50475 18 0 17.4953 0 16.875V8.625C0 8.00475 0.50475 7.5 1.125 7.5H7.125C7.74525 7.5 8.25 8.00475 8.25 8.625V16.875C8.25 17.4953 7.74525 18 7.125 18ZM1.125 8.25C0.91875 8.25 0.75 8.418 0.75 8.625V16.875C0.75 17.082 0.91875 17.25 1.125 17.25H7.125C7.33125 17.25 7.5 17.082 7.5 16.875V8.625C7.5 8.418 7.33125 8.25 7.125 8.25H1.125Z" fill="#418FC3"/>
<path d="M16.875 18H10.875C10.2548 18 9.75 17.4953 9.75 16.875V13.125C9.75 12.5048 10.2548 12 10.875 12H16.875C17.4953 12 18 12.5048 18 13.125V16.875C18 17.4953 17.4953 18 16.875 18ZM10.875 12.75C10.6687 12.75 10.5 12.918 10.5 13.125V16.875C10.5 17.082 10.6687 17.25 10.875 17.25H16.875C17.0813 17.25 17.25 17.082 17.25 16.875V13.125C17.25 12.918 17.0813 12.75 16.875 12.75H10.875Z" fill="#418FC3"/>
<path d="M16.875 10.5H10.875C10.2548 10.5 9.75 9.99525 9.75 9.375V1.125C9.75 0.50475 10.2548 0 10.875 0H16.875C17.4953 0 18 0.50475 18 1.125V9.375C18 9.99525 17.4953 10.5 16.875 10.5ZM10.875 0.75C10.6687 0.75 10.5 0.918 10.5 1.125V9.375C10.5 9.582 10.6687 9.75 10.875 9.75H16.875C17.0813 9.75 17.25 9.582 17.25 9.375V1.125C17.25 0.918 17.0813 0.75 16.875 0.75H10.875Z" fill="#418FC3"/>
</g>
<defs>
<clipPath id="clip0_63_505">
<rect width="18" height="18" fill="white"/>
</clipPath>
</defs>
</svg>
