<svg width="24" height="24" viewBox="0 0 24 24" fill="none" xmlns="http://www.w3.org/2000/svg">
<path d="M7.29733 16.0087H0.973006C0.88699 16.0087 0.804497 15.9745 0.743674 15.9137C0.682851 15.8528 0.648682 15.7703 0.648682 15.6843V14.2249C0.649626 13.3736 0.98821 12.5575 1.59015 11.9555C2.19209 11.3536 3.00822 11.015 3.85949 11.0141H6.90165C7.66508 11.0111 8.40431 11.2817 8.98541 11.7769C9.56651 12.272 9.95104 12.9589 10.0693 13.7131C10.0829 13.798 10.0622 13.8849 10.0118 13.9546C9.96131 14.0242 9.88524 14.071 9.8003 14.0846C9.71536 14.0982 9.6285 14.0775 9.55883 14.027C9.48916 13.9766 9.44238 13.9005 9.42879 13.8156C9.33437 13.2139 9.02757 12.666 8.56398 12.2711C8.10038 11.8761 7.51066 11.6603 6.90165 11.6627H3.85949C3.1802 11.6635 2.52895 11.9337 2.04862 12.414C1.56829 12.8943 1.2981 13.5456 1.29733 14.2249V15.36H7.29733C7.38335 15.36 7.46584 15.3942 7.52666 15.455C7.58748 15.5158 7.62165 15.5983 7.62165 15.6843C7.62165 15.7703 7.58748 15.8528 7.52666 15.9137C7.46584 15.9745 7.38335 16.0087 7.29733 16.0087Z" fill="#418FC3"/>
<path d="M5.37961 10.0803C4.88272 10.0804 4.39698 9.93312 3.98381 9.65711C3.57063 9.38111 3.24858 8.98878 3.05839 8.52973C2.8682 8.07069 2.8184 7.56556 2.9153 7.07822C3.0122 6.59087 3.25144 6.14321 3.60276 5.79184C3.95409 5.44046 4.40172 5.20117 4.88905 5.1042C5.37639 5.00724 5.88153 5.05698 6.34059 5.24711C6.79966 5.43724 7.19203 5.75924 7.46809 6.17238C7.74415 6.58552 7.8915 7.07124 7.8915 7.56813C7.89081 8.23414 7.62596 8.87268 7.15504 9.34366C6.68413 9.81463 6.04562 10.0796 5.37961 10.0803ZM5.37961 5.70488C5.011 5.70482 4.65065 5.81407 4.34414 6.01881C4.03763 6.22356 3.79872 6.51461 3.65763 6.85514C3.51654 7.19568 3.47961 7.57041 3.55151 7.93193C3.6234 8.29346 3.8009 8.62555 4.06154 8.88619C4.32219 9.14684 4.65427 9.32433 5.0158 9.39623C5.37733 9.46812 5.75205 9.43119 6.09259 9.2901C6.43312 9.14901 6.72417 8.9101 6.92892 8.60359C7.13366 8.29708 7.24292 7.93673 7.24285 7.56813C7.24225 7.07415 7.04575 6.60057 6.69646 6.25128C6.34716 5.90198 5.87359 5.70548 5.37961 5.70488Z" fill="#418FC3"/>
<path d="M23.027 16.0087H16.7027C16.6167 16.0087 16.5342 15.9745 16.4734 15.9137C16.4126 15.8528 16.3784 15.7703 16.3784 15.6843C16.3784 15.5983 16.4126 15.5158 16.4734 15.455C16.5342 15.3942 16.6167 15.36 16.7027 15.36H22.7027V14.2249C22.7019 13.5456 22.4317 12.8943 21.9514 12.414C21.4711 11.9337 20.8198 11.6635 20.1405 11.6627H17.0984C16.4893 11.6603 15.8995 11.8762 15.4359 12.2713C14.9723 12.6664 14.6655 13.2145 14.5713 13.8162C14.5577 13.9012 14.5109 13.9772 14.4412 14.0277C14.3715 14.0781 14.2847 14.0988 14.1997 14.0853C14.1148 14.0717 14.0387 14.0249 13.9883 13.9552C13.9378 13.8855 13.9171 13.7987 13.9307 13.7137C14.0489 12.9594 14.4333 12.2724 15.0144 11.7771C15.5956 11.2818 16.3349 11.0111 17.0984 11.0141H20.1405C20.9918 11.015 21.808 11.3536 22.4099 11.9555C23.0118 12.5575 23.3504 13.3736 23.3514 14.2249V15.6843C23.3514 15.7703 23.3172 15.8528 23.2564 15.9137C23.1955 15.9745 23.1131 16.0087 23.027 16.0087Z" fill="#418FC3"/>
<path d="M18.6204 10.0803C18.1235 10.0803 17.6378 9.933 17.2247 9.65696C16.8115 9.38091 16.4895 8.98856 16.2994 8.52951C16.1092 8.07046 16.0595 7.56534 16.1564 7.07802C16.2534 6.59069 16.4926 6.14306 16.844 5.79172C17.1953 5.44038 17.6429 5.20112 18.1303 5.10418C18.6176 5.00725 19.1227 5.057 19.5818 5.24714C20.0408 5.43728 20.4332 5.75928 20.7092 6.17241C20.9852 6.58555 21.1326 7.07126 21.1326 7.56813C21.1318 8.23417 20.8669 8.87271 20.3959 9.34368C19.925 9.81464 19.2864 10.0796 18.6204 10.0803ZM18.6204 5.70488C18.2518 5.70488 17.8915 5.81419 17.585 6.01897C17.2785 6.22376 17.0397 6.51483 16.8986 6.85537C16.7576 7.19591 16.7207 7.57063 16.7926 7.93213C16.8646 8.29364 17.0421 8.62569 17.3027 8.88631C17.5634 9.14692 17.8955 9.32438 18.257 9.39625C18.6185 9.46812 18.9932 9.43117 19.3338 9.29007C19.6743 9.14897 19.9653 8.91006 20.17 8.60356C20.3748 8.29705 20.484 7.93672 20.4839 7.56813C20.4834 7.07406 20.2869 6.60039 19.9375 6.25107C19.5881 5.90174 19.1144 5.70531 18.6204 5.70488Z" fill="#418FC3"/>
<path d="M16.9703 18.6195H7.02977C6.94375 18.6195 6.86126 18.5853 6.80044 18.5245C6.73961 18.4636 6.70544 18.3811 6.70544 18.2951V16.9745C6.70639 16.0254 7.08381 15.1154 7.7549 14.4443C8.42598 13.7731 9.33591 13.3956 10.285 13.3946H13.7151C14.6642 13.3956 15.5741 13.7731 16.2452 14.4443C16.9163 15.1154 17.2937 16.0254 17.2946 16.9745V18.2951C17.2946 18.3811 17.2605 18.4636 17.1996 18.5245C17.1388 18.5853 17.0563 18.6195 16.9703 18.6195ZM7.35409 17.9708H16.646V16.9745C16.6452 16.1974 16.3362 15.4523 15.7867 14.9028C15.2372 14.3532 14.4922 14.0441 13.7151 14.0432H10.285C9.50795 14.0441 8.76296 14.3532 8.21349 14.9026C7.66402 15.4521 7.35495 16.1971 7.35409 16.9742V17.9708Z" fill="#418FC3"/>
<path d="M12 12.2594C11.4477 12.2595 10.9079 12.0958 10.4487 11.7891C9.98945 11.4823 9.63153 11.0462 9.42015 10.5361C9.20877 10.0259 9.15343 9.46446 9.26113 8.92283C9.36883 8.38119 9.63472 7.88365 10.0252 7.49314C10.4157 7.10262 10.9132 6.83667 11.4548 6.72891C11.9964 6.62115 12.5578 6.67642 13.068 6.88774C13.5783 7.09906 14.0143 7.45693 14.3212 7.9161C14.628 8.37526 14.7917 8.9151 14.7917 9.46734C14.7911 10.2076 14.4967 10.9173 13.9733 11.4408C13.4499 11.9643 12.7402 12.2587 12 12.2594ZM12 7.32323C11.576 7.32317 11.1615 7.44883 10.809 7.68434C10.4564 7.91984 10.1817 8.2546 10.0194 8.64628C9.85712 9.03796 9.81464 9.46896 9.89734 9.88478C9.98003 10.3006 10.1842 10.6826 10.484 10.9823C10.7838 11.2821 11.1657 11.4863 11.5815 11.569C11.9974 11.6517 12.4284 11.6092 12.82 11.4469C13.2117 11.2847 13.5465 11.0099 13.782 10.6573C14.0175 10.3048 14.1432 9.89033 14.1431 9.46637C14.1425 8.89816 13.9165 8.35339 13.5147 7.95161C13.1129 7.54982 12.5682 7.32383 12 7.32323Z" fill="#418FC3"/>
</svg>
