<svg width="24" height="24" viewBox="0 0 24 24" fill="none" xmlns="http://www.w3.org/2000/svg">
<g id="fi_4279576">
<g id="Contract">
<path id="Vector" d="M9.75 11.25H5.625C5.52554 11.25 5.43016 11.2105 5.35984 11.1402C5.28951 11.0698 5.25 10.9745 5.25 10.875C5.25 10.7755 5.28951 10.6802 5.35984 10.6098C5.43016 10.5395 5.52554 10.5 5.625 10.5H9.75C9.84946 10.5 9.94484 10.5395 10.0152 10.6098C10.0855 10.6802 10.125 10.7755 10.125 10.875C10.125 10.9745 10.0855 11.0698 10.0152 11.1402C9.94484 11.2105 9.84946 11.25 9.75 11.25Z" fill="#418FC3"/>
<path id="Vector_2" d="M5.625 8.625H15.375C15.4745 8.625 15.5698 8.66451 15.6402 8.73483C15.7105 8.80516 15.75 8.90054 15.75 9C15.75 9.09946 15.7105 9.19484 15.6402 9.26517C15.5698 9.33549 15.4745 9.375 15.375 9.375H5.625C5.52554 9.375 5.43016 9.33549 5.35984 9.26517C5.28951 9.19484 5.25 9.09946 5.25 9C5.25 8.90054 5.28951 8.80516 5.35984 8.73483C5.43016 8.66451 5.52554 8.625 5.625 8.625Z" fill="#418FC3"/>
<path id="Vector_3" d="M5.625 6.75H15.375C15.4745 6.75 15.5698 6.78951 15.6402 6.85983C15.7105 6.93016 15.75 7.02554 15.75 7.125C15.75 7.22446 15.7105 7.31984 15.6402 7.39017C15.5698 7.46049 15.4745 7.5 15.375 7.5H5.625C5.52554 7.5 5.43016 7.46049 5.35984 7.39017C5.28951 7.31984 5.25 7.22446 5.25 7.125C5.25 7.02554 5.28951 6.93016 5.35984 6.85983C5.43016 6.78951 5.52554 6.75 5.625 6.75Z" fill="#418FC3"/>
<path id="Vector_4" d="M5.625 4.875H15.375C15.4745 4.875 15.5698 4.91451 15.6402 4.98484C15.7105 5.05516 15.75 5.15054 15.75 5.25C15.75 5.34946 15.7105 5.44484 15.6402 5.51516C15.5698 5.58549 15.4745 5.625 15.375 5.625H5.625C5.52554 5.625 5.43016 5.58549 5.35984 5.51516C5.28951 5.44484 5.25 5.34946 5.25 5.25C5.25 5.15054 5.28951 5.05516 5.35984 4.98484C5.43016 4.91451 5.52554 4.875 5.625 4.875Z" fill="#418FC3"/>
<path id="Vector_5" d="M20.94 10.8787L20.685 11.1375L20.415 10.8675L20.6512 10.6313C20.9644 10.3191 21.148 9.90013 21.1652 9.4583C21.1824 9.01648 21.0318 8.5845 20.7438 8.24902C20.4558 7.91355 20.0515 7.69938 19.6122 7.64948C19.1729 7.59959 18.7309 7.71766 18.375 7.98V3C18.3741 2.70191 18.2553 2.41627 18.0445 2.20549C17.8337 1.9947 17.5481 1.87589 17.25 1.875H3.75C3.45191 1.87589 3.16627 1.9947 2.95549 2.20549C2.7447 2.41627 2.62589 2.70191 2.625 3V21C2.62589 21.2981 2.7447 21.5837 2.95549 21.7945C3.16627 22.0053 3.45191 22.1241 3.75 22.125H17.25C17.5481 22.1241 17.8337 22.0053 18.0445 21.7945C18.2553 21.5837 18.3741 21.2981 18.375 21V14.5087L21.4725 11.4113C21.5431 11.3406 21.5828 11.2449 21.5828 11.145C21.5828 11.0451 21.5431 10.9494 21.4725 10.8787C21.4019 10.8081 21.3061 10.7685 21.2062 10.7685C21.1064 10.7685 21.0106 10.8081 20.94 10.8787ZM17.625 14.1975L17.1863 14.6362C17.1225 14.6992 17.0836 14.7831 17.0767 14.8725C17.0698 14.9619 17.0953 15.0507 17.1487 15.1228C17.202 15.1948 17.2796 15.2452 17.3671 15.2646C17.4546 15.2841 17.5461 15.2714 17.625 15.2288V21C17.625 21.0995 17.5855 21.1948 17.5152 21.2652C17.4448 21.3355 17.3495 21.375 17.25 21.375H3.75C3.65054 21.375 3.55516 21.3355 3.48484 21.2652C3.41451 21.1948 3.375 21.0995 3.375 21V3C3.375 2.90054 3.41451 2.80516 3.48484 2.73484C3.55516 2.66451 3.65054 2.625 3.75 2.625H17.25C17.3495 2.625 17.4448 2.66451 17.5152 2.73484C17.5855 2.80516 17.625 2.90054 17.625 3V8.7C16.05 10.275 10.605 15.72 10.6013 15.7275C10.4951 15.8336 10.4182 15.888 10.3912 16.0312C10.3822 16.0688 9.88125 18.351 9.88125 18.39L9.5025 18.7687C9.43189 18.8394 9.39222 18.9351 9.39222 19.035C9.39222 19.1349 9.43189 19.2306 9.5025 19.3013C9.57311 19.3719 9.66889 19.4115 9.76875 19.4115C9.86861 19.4115 9.96439 19.3719 10.035 19.3013L10.4175 18.9188C10.4756 18.9188 12.7174 18.4256 12.7725 18.4125C12.9431 18.3724 12.9566 18.3296 13.08 18.2062L17.625 13.6575V14.1975ZM10.9312 16.6725L12.1312 17.8725C10.8915 18.1474 11.6018 17.9914 10.5975 18.2062C10.8049 17.2361 10.725 17.6029 10.9312 16.6725ZM12.8363 17.3925L11.415 15.9713C11.5312 15.849 16.8225 10.5596 16.9425 10.44L18.3638 11.8612C18.1553 12.0686 13.0125 17.2069 12.8363 17.3925ZM18.375 13.4475V12.9075C19.635 11.6475 19.3054 11.9764 19.8862 11.4L20.1562 11.6663L18.375 13.4475ZM20.1188 10.1025C19.4902 10.731 19.7647 10.4557 18.8962 11.3287H18.8925L17.4788 9.91125C17.6966 9.68813 17.4847 9.90112 18.7013 8.685C18.8899 8.50015 19.1438 8.39721 19.4079 8.39855C19.672 8.39988 19.9249 8.50538 20.1116 8.69212C20.2984 8.87886 20.4039 9.13176 20.4052 9.39585C20.4065 9.65994 20.3036 9.91388 20.1188 10.1025Z" fill="#418FC3"/>
</g>
</g>
</svg>
