<svg width="25" height="25" viewBox="0 0 25 25" fill="none" xmlns="http://www.w3.org/2000/svg">
<g id="fi_4855030">
<g id="eye_off">
<path id="Vector" d="M10.0813 7.14583C10.9032 6.8776 11.7168 6.74167 12.5001 6.74167C16.9433 6.74167 20.8543 11.0625 22.0329 12.5005C21.611 13.0172 20.8391 13.9036 19.8209 14.8234C19.5011 15.113 19.4761 15.6068 19.7652 15.9271C19.9199 16.0974 20.1319 16.1844 20.3449 16.1844C20.5319 16.1844 20.7194 16.1177 20.8688 15.9828C22.5735 14.4417 23.6141 13.0182 23.6579 12.9583C23.8569 12.6849 23.8569 12.3141 23.6579 12.0401C23.4543 11.7609 18.6043 5.17917 12.5001 5.17917C11.5522 5.17917 10.5756 5.34115 9.59696 5.66042C9.18654 5.79427 8.96258 6.23542 9.09696 6.64531C9.23029 7.05625 9.67248 7.28073 10.0813 7.14583ZM2.4881 2.08333C2.1631 1.80052 1.66935 1.83385 1.38602 2.15938C1.10217 2.48438 1.13654 2.9776 1.46154 3.26146L6.19435 7.38594C3.31935 9.35052 1.42821 11.9234 1.34279 12.0411C1.14435 12.3146 1.14435 12.6854 1.34279 12.9594C1.54592 13.2391 6.39592 19.8208 12.5001 19.8208C14.3855 19.8208 16.3365 19.1828 18.3048 17.9396L22.5121 21.6062C22.66 21.7354 22.8428 21.7984 23.0246 21.7984C23.2428 21.7984 23.4595 21.7078 23.6141 21.5302C23.8975 21.2052 23.8636 20.7115 23.5381 20.4281L2.4881 2.08333ZM10.4319 11.0781L13.9381 14.1339C13.5282 14.4443 13.0251 14.6224 12.5001 14.6224C11.1865 14.6224 10.1173 13.5531 10.1173 12.2396C10.1173 11.8229 10.2334 11.4297 10.4319 11.0781ZM12.5001 18.2583C8.05685 18.2583 4.14644 13.938 2.96779 12.4995C3.65842 11.6552 5.29435 9.825 7.41988 8.45365L9.23029 10.0318C8.79175 10.6776 8.55425 11.4375 8.55425 12.2396C8.55425 14.4151 10.324 16.1849 12.4996 16.1849C13.4782 16.1849 14.4131 15.8151 15.1303 15.1734L17.0714 16.8651C15.4975 17.7875 13.9626 18.2583 12.5001 18.2583Z" fill="#48515C"/>
</g>
</g>
</svg>
